<svg width="67" height="29" viewBox="0 0 67 29" fill="none" xmlns="http://www.w3.org/2000/svg">
<g clip-path="url(#clip0_6_2)">
<path d="M24.622 26H23.1268L20.5481 17.5449L18.5967 26H17.4119L19.5914 16.5483H21.4795L23.8364 24.2671L25.6168 16.5483H26.8016L24.622 26Z" fill="#D9D9D9"/>
<path d="M35.5133 16.5483L35.2662 17.6211H30.3053L29.6971 20.2871H34.658L34.4109 21.3535H29.45L28.6263 24.9272H33.5873L33.3402 26H27.1247L29.2979 16.5483H35.5133Z" fill="#D9D9D9"/>
<path d="M48.4321 16.5483L43.902 26H42.4511L42.1723 18.1733L38.5102 26H37.1163L36.7298 16.5483H38.0033L38.2568 24.394L41.9506 16.5483H43.2241L43.4775 24.4702L47.1966 16.5483H48.4321Z" fill="#D9D9D9"/>
<path d="M51.4416 26.1714C50.8292 26.1714 50.2463 26.1079 49.6929 25.981C49.1396 25.8498 48.5968 25.6509 48.0646 25.3843L48.3688 23.9434H48.4575C48.863 24.3285 49.3593 24.6247 49.9464 24.832C50.5377 25.0352 51.108 25.1367 51.6571 25.1367C52.5567 25.1367 53.2452 24.959 53.7225 24.6035C54.2041 24.2438 54.4448 23.7868 54.4448 23.2324C54.4448 22.9404 54.3582 22.6971 54.1851 22.5024C54.0161 22.3078 53.7669 22.1639 53.4374 22.0708C53.1629 21.9946 52.8355 21.9227 52.4554 21.855C52.0794 21.783 51.7204 21.7069 51.3783 21.6265C50.7151 21.4784 50.2019 21.2244 49.8387 20.8647C49.4754 20.505 49.2938 20.0586 49.2938 19.5254C49.2938 18.624 49.6739 17.875 50.4342 17.2783C51.1988 16.6774 52.185 16.377 53.3931 16.377C54.052 16.377 54.6497 16.4468 55.1861 16.5864C55.7268 16.7218 56.1914 16.8826 56.58 17.0688L56.2949 18.4209H56.2062C55.9063 18.1458 55.4776 17.9089 54.92 17.71C54.3667 17.5111 53.7838 17.4116 53.1713 17.4116C52.4026 17.4116 51.788 17.5809 51.3276 17.9194C50.8714 18.258 50.6433 18.6875 50.6433 19.208C50.6433 19.4873 50.7257 19.7327 50.8904 19.9443C51.0552 20.1559 51.3487 20.3146 51.7711 20.4204C52.0414 20.4839 52.4005 20.5622 52.8482 20.6553C53.2959 20.7441 53.6719 20.8288 53.976 20.9092C54.5758 21.0742 55.0298 21.3197 55.3382 21.6455C55.6507 21.9714 55.807 22.3818 55.807 22.877C55.807 23.2917 55.7057 23.7043 55.5029 24.1147C55.3002 24.5252 55.0172 24.8765 54.6539 25.1685C54.2653 25.4816 53.8091 25.7271 53.2854 25.9048C52.7658 26.0825 52.1513 26.1714 51.4416 26.1714Z" fill="#D9D9D9"/>
<path d="M61.2305 16.5483L59.4881 23.3975H58.4111L59.8113 16.5483H61.2305ZM58.9876 26H57.6951L58.0056 24.6606H59.2981L58.9876 26Z" fill="#D9D9D9"/>
<path d="M29.2827 3.17139L28.8582 4.99951H24.5245L24.119 6.75781H28.136L27.7178 8.58594H23.7009L22.7695 12.623H20.3365L22.5161 3.17139H29.2827Z" fill="#FFFEFF"/>
<path d="M35.5869 12.623H28.7759L30.9554 3.17139H33.401L31.646 10.7949H36.0114L35.5869 12.623Z" fill="white"/>
<path d="M45.87 12.623H43.418L43.2026 10.6934H39.7305L38.6281 12.623H36.0874L41.7453 3.17139H44.5584L45.87 12.623ZM43.0188 8.99854L42.6387 5.60254L40.6936 8.99854H43.0188Z" fill="white"/>
<path d="M50.5902 12.7944C49.7834 12.7944 49.0632 12.7246 48.4296 12.585C47.8003 12.4453 47.2554 12.2718 46.795 12.0645L47.2829 9.79834H47.549C47.984 10.1961 48.4951 10.505 49.0822 10.7251C49.6694 10.9409 50.3008 11.0488 50.9766 11.0488C51.6694 11.0488 52.1783 10.9557 52.5036 10.7695C52.8288 10.5791 52.9914 10.3083 52.9914 9.95703C52.9914 9.82585 52.964 9.7137 52.9091 9.62061C52.8584 9.52327 52.757 9.42806 52.605 9.33496C52.4529 9.24186 52.2438 9.15088 51.9777 9.06201C51.7158 8.96891 51.3758 8.86312 50.9576 8.74463C50.4972 8.61768 50.0833 8.48014 49.7158 8.33203C49.3526 8.18392 49.0421 8.0083 48.7844 7.80518C48.5268 7.59782 48.3304 7.35872 48.1952 7.08789C48.0643 6.81706 47.9988 6.49333 47.9988 6.1167C47.9988 5.16878 48.4149 4.41341 49.247 3.85059C50.0833 3.28353 51.2259 3 52.6747 3C53.3716 3 54.0284 3.05713 54.6451 3.17139C55.266 3.28564 55.7919 3.4401 56.2227 3.63477L55.7602 5.81201H55.5004C55.171 5.50732 54.7359 5.25342 54.1953 5.05029C53.6588 4.84294 53.0717 4.73926 52.4339 4.73926C51.8088 4.73926 51.3251 4.83024 50.983 5.01221C50.6408 5.19417 50.4698 5.44596 50.4698 5.76758C50.4698 5.91569 50.4951 6.03841 50.5458 6.13574C50.5965 6.23307 50.7 6.32829 50.8563 6.42139C50.9914 6.50602 51.2047 6.59912 51.4962 6.70068C51.7876 6.79801 52.1298 6.89958 52.5226 7.00537C53.5786 7.2889 54.3325 7.62109 54.7845 8.00195C55.2364 8.38281 55.4624 8.89909 55.4624 9.55078C55.4624 10.0967 55.3399 10.577 55.0949 10.9917C54.85 11.4064 54.512 11.7428 54.0812 12.001C53.6292 12.276 53.116 12.4771 52.5416 12.604C51.9671 12.731 51.3167 12.7944 50.5902 12.7944Z" fill="white"/>
<path d="M67 3.17139L64.8204 12.623H62.3748L63.3379 8.44629H59.7581L58.7951 12.623H56.3494L58.529 3.17139H60.9746L60.1699 6.6499H63.7497L64.5543 3.17139H67Z" fill="white"/>
<path d="M1.89185 16.4336L6.67374 1.93359H15.1872L9.45936 12.5669H16.0809L3.73153 29.0003L7.56748 16.4336H1.89185Z" fill="#FF9900"/>
<path fill-rule="evenodd" clip-rule="evenodd" d="M4.80709 0.343139C4.87464 0.138328 5.06567 0 5.28097 0H13.7944C13.9702 0 14.133 0.0926068 14.223 0.243808C14.313 0.39501 14.3171 0.582517 14.2336 0.737463L8.90303 10.6333H14.6882C14.8774 10.6333 15.0503 10.7405 15.1347 10.9101C15.2192 11.0798 15.2007 11.2826 15.0869 11.4341L2.73745 27.8674C2.59175 28.0613 2.32812 28.1223 2.11226 28.0122C1.8964 27.9021 1.79066 27.6525 1.8615 27.4204L5.5002 15.5H0.499073C0.338883 15.5 0.188429 15.423 0.0945926 15.2929C0.000756316 15.1628 -0.0250559 14.9955 0.0251991 14.8431L4.80709 0.343139ZM5.64168 1L1.18957 14.5H6.17471C6.33294 14.5 6.48179 14.5752 6.5759 14.7026C6.67001 14.83 6.69823 14.9946 6.65196 15.1462L3.64496 24.9972L13.6877 11.6333H8.06659C7.89085 11.6333 7.72806 11.5407 7.63801 11.3895C7.54796 11.2383 7.54393 11.0508 7.62739 10.8959L12.958 1H5.64168Z" fill="white"/>
</g>
<defs>
<clipPath id="clip0_6_2">
<rect width="67" height="29" fill="white"/>
</clipPath>
</defs>
</svg>
